<?xml version="1.0" encoding="iso-8859-1"?>
<!-- Generator: Adobe Illustrator 21.0.0, SVG Export Plug-In . SVG Version: 6.00 Build 0)  -->
<svg xmlns="http://www.w3.org/2000/svg" xmlns:xlink="http://www.w3.org/1999/xlink" version="1.1" id="Capa_1" x="0px" y="0px" viewBox="0 0 511.969 511.969" style="enable-background:new 0 0 511.969 511.969;" xml:space="preserve" width="512" height="512">
<g>
	<g>
		<path style="fill:#E95353;" d="M488.441,245.148H22.691c-8.585,0-15.61,7.025-15.61,15.61v18.551c0,8.585,7.025,15.61,15.61,15.61    h465.749c8.585,0,15.61-7.024,15.61-15.61v-18.551C504.05,252.172,497.026,245.148,488.441,245.148z"/>
		<path style="fill:#D44545;" d="M488.441,274.918H22.691c-8.34,0-15.188-6.635-15.573-14.885c-0.011,0.242-0.037,0.48-0.037,0.724    v18.551c0,8.585,7.025,15.61,15.61,15.61h465.75c8.585,0,15.61-7.024,15.61-15.61v-18.551c0-0.245-0.026-0.483-0.037-0.724    C503.629,268.283,496.782,274.918,488.441,274.918z"/>
		<path style="fill:#50BC37;" d="M253.969,294.918H32.048c-13.744,0-24.885,11.141-24.885,24.885s11.141,24.885,24.885,24.885    H301.93L253.969,294.918z"/>
		<path style="fill:#61CE4A;" d="M479.085,294.918h-18.476l-47.961,49.77h66.437c13.743,0,24.885-11.141,24.885-24.885    S492.828,294.918,479.085,294.918z"/>
		<path style="fill:#349B18;" d="M479.085,324.246h-46.737l-19.699,20.443h66.437c13.743,0,24.885-11.141,24.885-24.885    c0-3.644-0.79-7.102-2.197-10.221C497.872,318.226,489.184,324.246,479.085,324.246z"/>
		<path style="fill:#61CE4A;" d="M301.93,344.688H22.691c-8.621,0-15.61,6.989-15.61,15.61c0,8.621,6.989,15.61,15.61,15.61h309.323    L301.93,344.688z"/>
		<path style="fill:#61CE4A;" d="M488.36,344.688h-75.712l-30.084,31.219H488.36c8.621,0,15.61-6.989,15.61-15.61    C503.969,351.677,496.981,344.688,488.36,344.688z"/>
		<path style="fill:#B26314;" d="M479.165,375.907h-96.601l-14.281,14.82c-6.005,6.232-15.983,6.232-21.988,0l-14.281-14.82H31.967    c-13.687,0-24.885,11.198-24.885,24.885l0,0c0,13.687,11.198,24.885,24.885,24.885h447.198c13.687,0,24.885-11.198,24.885-24.885    l0,0C504.05,387.106,492.852,375.907,479.165,375.907z"/>
		<path style="fill:#F4B36C;" d="M485.927,424.885H25.204c-10.338,0-18.739,8.809-17.997,19.26    c1.522,21.422,18.965,40.036,42.417,40.036h411.884c23.452,0,40.894-18.614,42.416-40.036    C504.666,433.694,496.266,424.885,485.927,424.885z"/>
		<path style="fill:#349B18;" d="M32.048,324.688c-10.186,0-18.937-6.122-22.788-14.885c-1.345,3.061-2.097,6.442-2.097,10    c0,13.744,11.141,24.885,24.885,24.885H301.93l-19.273-20H32.048z"/>
		<path style="fill:#50BC37;" d="M22.691,355.907c-4.815,0-9.118-2.183-11.981-5.61c-2.263,2.709-3.629,6.194-3.629,10    c0,8.621,6.989,15.61,15.61,15.61h309.323l-19.272-20H22.691z"/>
		<path style="fill:#61CE4A;" d="M488.36,355.907h-86.523l-19.273,20H488.36c8.621,0,15.61-6.989,15.61-15.61    c0-3.806-1.365-7.291-3.629-10C497.477,353.725,493.175,355.907,488.36,355.907z"/>
		<path style="fill:#A3520A;" d="M479.165,405.678H31.967c-10.134,0-18.898-6.142-22.768-14.885c-1.357,3.065-2.117,6.447-2.117,10    c0,13.687,11.198,24.885,24.885,24.885h447.199c13.687,0,24.885-11.198,24.885-24.885c0-3.553-0.76-6.935-2.117-10    C498.063,399.536,489.299,405.678,479.165,405.678z"/>
		<path style="fill:#E6A050;" d="M461.508,464.182H49.624c-19.548,0-34.912-12.937-40.369-29.648    c-1.512,2.85-2.294,6.135-2.047,9.612c1.522,21.422,18.964,40.036,42.417,40.036h411.884c23.452,0,40.894-18.614,42.416-40.036    c0.247-3.477-0.535-6.762-2.047-9.612C496.419,451.245,481.056,464.182,461.508,464.182z"/>
		<path style="fill:#F4B36C;" d="M500.081,185.308C457.451,92.598,364.003,28.253,255.566,28.253S53.681,92.598,11.051,185.309    c-13.006,28.284,7.529,60.577,38.573,60.577h411.883C492.552,245.885,513.086,213.593,500.081,185.308z"/>
		<path style="fill:#E6A050;" d="M30.72,185.309c41.336-89.896,130.451-153.12,234.68-156.876c-3.264-0.118-6.542-0.179-9.834-0.179    c-108.436,0-201.885,64.344-244.515,157.056c-13.006,28.284,7.529,60.577,38.573,60.577h19.669    C38.249,245.885,17.715,213.593,30.72,185.309z"/>
		<g>
			<path style="fill:#E6A050;" d="M131.609,152.631c-5.931,0-10.74-4.809-10.74-10.74v-2.24c0-5.931,4.809-10.74,10.74-10.74     s10.74,4.809,10.74,10.74v2.24C142.349,147.822,137.54,152.631,131.609,152.631z"/>
		</g>
		<g>
			<path style="fill:#E6A050;" d="M209.793,152.631c-5.931,0-10.74-4.809-10.74-10.74v-2.24c0-5.931,4.809-10.74,10.74-10.74     s10.74,4.809,10.74,10.74v2.24C220.533,147.822,215.724,152.631,209.793,152.631z"/>
		</g>
		<g>
			<path style="fill:#E6A050;" d="M287.975,152.631c-5.931,0-10.74-4.809-10.74-10.74v-2.24c0-5.931,4.809-10.74,10.74-10.74     s10.74,4.809,10.74,10.74v2.24C298.715,147.822,293.906,152.631,287.975,152.631z"/>
		</g>
		<g>
			<path style="fill:#E6A050;" d="M366.159,152.631c-5.931,0-10.74-4.809-10.74-10.74v-2.24c0-5.931,4.809-10.74,10.74-10.74     s10.74,4.809,10.74,10.74v2.24C376.899,147.822,372.09,152.631,366.159,152.631z"/>
		</g>
		<g>
			<path style="fill:#E6A050;" d="M170.701,107.614c-5.931,0-10.74-4.809-10.74-10.74v-2.24c0-5.931,4.809-10.74,10.74-10.74     s10.74,4.809,10.74,10.74v2.24C181.441,102.805,176.632,107.614,170.701,107.614z"/>
		</g>
		<g>
			<path style="fill:#E6A050;" d="M248.884,107.614c-5.931,0-10.74-4.809-10.74-10.74v-2.24c0-5.931,4.809-10.74,10.74-10.74     c5.931,0,10.74,4.809,10.74,10.74v2.24C259.625,102.805,254.816,107.614,248.884,107.614z"/>
		</g>
		<g>
			<path style="fill:#E6A050;" d="M327.067,107.614c-5.931,0-10.74-4.809-10.74-10.74v-2.24c0-5.931,4.809-10.74,10.74-10.74     s10.74,4.809,10.74,10.74v2.24C337.807,102.805,332.998,107.614,327.067,107.614z"/>
		</g>
		<path style="fill:#FED42D;" d="M251.243,294.918l94.762,98.337c6.163,6.396,16.405,6.396,22.568,0l94.762-98.337H251.243z"/>
		<path style="fill:#FEBE30;" d="M276.519,294.918h-25.275l94.762,98.337c6.163,6.396,16.405,6.396,22.568,0l1.354-1.405    L276.519,294.918z"/>
	</g>
	<g>
		<path style="fill:#020202;" d="M496.403,238.688c4.502-4.317,8.252-9.538,10.992-15.515c1.727-3.765,0.073-8.217-3.692-9.942    c-3.763-1.728-8.217-0.073-9.942,3.692c-5.795,12.642-17.993,20.494-31.833,20.494H50.043c-25.589,0-42.459-26.544-31.762-49.729    C60.93,95.251,154.234,35.522,255.985,35.522c101.75,0,195.055,59.729,237.685,152.125c0.061,0.149,0.122,0.298,0.188,0.446    c1.682,3.785,6.111,5.478,9.896,3.798c3.785-1.683,5.486-6.125,3.805-9.91c-0.075-0.184-0.151-0.365-0.249-0.577    C435.906,26.645,244.64-25.846,104.95,65.355C61.185,93.929,26.505,134.058,4.66,181.404c-9.15,19.833-4.39,42.64,10.952,57.268    C6.54,241.794,0,250.408,0,260.527v18.551c0,7.415,3.515,14.021,8.961,18.252c-5.497,5.807-8.88,13.635-8.88,22.243    c0,8.608,3.382,16.436,8.88,22.242C3.514,346.046,0,352.652,0,360.067c0,7.394,3.495,13.983,8.915,18.216    C3.397,384.093,0,391.936,0,400.562c0,8.986,3.681,17.126,9.612,23c-6.38,5.082-10.079,12.901-9.465,21.427    c1.877,26.054,23.794,46.463,49.896,46.463h188.441c4.143,0,7.5-3.357,7.5-7.5s-3.357-7.5-7.5-7.5H50.043    c-20.4,0-33.783-16.545-34.936-32.54c-0.434-6.044,4.611-10.964,10.516-10.964c13.326,0,459.095,0,460.724,0    c5.91,0,10.949,4.925,10.516,10.964c-1.151,15.995-14.534,32.54-34.936,32.54H273.484c-4.143,0-7.5,3.357-7.5,7.5    s3.357,7.5,7.5,7.5h188.442c26.104,0,48.021-20.409,49.896-46.464c0.615-8.539-3.095-16.351-9.465-21.427    c5.93-5.873,9.611-14.013,9.611-22.999c0-8.644-3.411-16.501-8.948-22.315c5.393-4.234,8.868-10.807,8.868-18.18    c0-7.394-3.495-13.982-8.914-18.215c5.518-5.81,8.914-13.653,8.914-22.279c0-8.608-3.382-16.437-8.88-22.243    c5.446-4.232,8.96-10.837,8.96-18.252v-18.551C511.969,250.425,505.451,241.822,496.403,238.688z M15,260.527    c0-4.472,3.639-8.11,8.11-8.11c4.04,0,457.762,0,465.749,0c4.472,0,8.109,3.639,8.109,8.11v18.551    c0,4.472-3.638,8.109-8.109,8.109c-20.103,0-446.139,0-465.749,0c-4.472,0-8.11-3.638-8.11-8.109V260.527z M488.779,351.958    c4.472,0,8.109,3.638,8.109,8.109s-3.638,8.11-8.109,8.11c-9.814,0-78.774,0-88.153,0l15.63-16.22    C428.687,351.958,470.345,351.958,488.779,351.958z M23.11,368.177c-4.472,0-8.11-3.639-8.11-8.11s3.639-8.109,8.11-8.109    c6.794,0,272.976,0,276.051,0l15.629,16.22C310.59,368.177,28.062,368.177,23.11,368.177z M251.2,302.187    c22.838,23.699,15.499,16.084,33.506,34.771H32.467c-9.587,0-17.386-7.799-17.386-17.385c0-9.587,7.799-17.386,17.386-17.386    H251.2z M272.031,302.187h171.354c-18.212,18.899-62.488,64.846-80.084,83.105c-3.06,3.176-8.13,3.173-11.188,0    C321.657,353.685,303.473,334.815,272.031,302.187z M430.71,336.958l33.507-34.771h15.287c9.586,0,17.385,7.799,17.385,17.386    c0,9.586-7.799,17.385-17.385,17.385H430.71z M32.386,417.948c-9.587,0-17.386-7.799-17.386-17.386    c0-9.586,7.799-17.385,17.386-17.385h296.858l12.069,12.523c8.969,9.307,23.827,9.3,32.789,0l12.069-12.523h93.412    c9.586,0,17.385,7.799,17.385,17.385c0,9.587-7.799,17.386-17.385,17.386H32.386z"/>
		<path style="fill:#020202;" d="M113.787,139.42v2.24c0,10.058,8.183,18.24,18.24,18.24c10.059,0,18.241-8.183,18.241-18.24v-2.24    c0-10.058-8.183-18.24-18.241-18.24C121.97,121.179,113.787,129.362,113.787,139.42z M135.269,139.42v2.24    c0,1.787-1.454,3.24-3.241,3.24s-3.24-1.453-3.24-3.24v-2.24c0-1.787,1.453-3.24,3.24-3.24S135.269,137.632,135.269,139.42z"/>
		<path style="fill:#020202;" d="M191.972,139.42v2.24c0,10.058,8.183,18.24,18.24,18.24s18.24-8.183,18.24-18.24v-2.24    c0-10.058-8.183-18.24-18.24-18.24S191.972,129.362,191.972,139.42z M213.452,139.42v2.24c0,1.787-1.453,3.24-3.24,3.24    s-3.24-1.453-3.24-3.24v-2.24c0-1.787,1.453-3.24,3.24-3.24S213.452,137.632,213.452,139.42z"/>
		<path style="fill:#020202;" d="M270.154,139.42v2.24c0,10.058,8.183,18.24,18.24,18.24s18.24-8.183,18.24-18.24v-2.24    c0-10.058-8.183-18.24-18.24-18.24S270.154,129.362,270.154,139.42z M291.635,139.42v2.24c0,1.787-1.453,3.24-3.24,3.24    s-3.24-1.453-3.24-3.24v-2.24c0-1.787,1.453-3.24,3.24-3.24S291.635,137.632,291.635,139.42z"/>
		<path style="fill:#020202;" d="M348.338,139.42v2.24c0,10.058,8.183,18.24,18.24,18.24s18.24-8.183,18.24-18.24v-2.24    c0-10.058-8.183-18.24-18.24-18.24S348.338,129.362,348.338,139.42z M369.818,139.42v2.24c0,1.787-1.453,3.24-3.24,3.24    s-3.24-1.453-3.24-3.24v-2.24c0-1.787,1.453-3.24,3.24-3.24S369.818,137.632,369.818,139.42z"/>
		<path style="fill:#020202;" d="M152.88,94.403v2.24c0,10.058,8.183,18.24,18.24,18.24s18.24-8.183,18.24-18.24v-2.24    c0-10.058-8.183-18.24-18.24-18.24S152.88,84.345,152.88,94.403z M174.36,94.403v2.24c0,1.787-1.453,3.24-3.24,3.24    s-3.24-1.453-3.24-3.24v-2.24c0-1.787,1.453-3.24,3.24-3.24S174.36,92.616,174.36,94.403z"/>
		<path style="fill:#020202;" d="M231.063,94.403v2.24c0,10.058,8.183,18.24,18.24,18.24s18.24-8.183,18.24-18.24v-2.24    c0-10.058-8.183-18.24-18.24-18.24S231.063,84.345,231.063,94.403z M252.544,94.403v2.24c0,1.787-1.453,3.24-3.24,3.24    s-3.24-1.453-3.24-3.24v-2.24c0-1.787,1.453-3.24,3.24-3.24S252.544,92.616,252.544,94.403z"/>
		<path style="fill:#020202;" d="M309.246,94.403v2.24c0,10.058,8.183,18.24,18.24,18.24s18.24-8.183,18.24-18.24v-2.24    c0-10.058-8.183-18.24-18.24-18.24S309.246,84.345,309.246,94.403z M330.727,94.403v2.24c0,1.787-1.453,3.24-3.24,3.24    s-3.24-1.453-3.24-3.24v-2.24c0-1.787,1.453-3.24,3.24-3.24S330.727,92.616,330.727,94.403z"/>
	</g>
</g>















</svg>
