<svg id="Capa_1" enable-background="new 0 0 511.998 511.998" height="512" viewBox="0 0 511.998 511.998" width="512" xmlns="http://www.w3.org/2000/svg"><g><path d="m386.356 378.774-86.504-29.589h-87.705l-86.504 29.589c-18.204 6.227-30.436 23.338-30.436 42.578v83.144h321.586v-83.144c-.001-19.24-12.233-36.351-30.437-42.578z" fill="#f3f0f3"/><path d="m175.642 378.774 86.504-29.589h-50l-86.504 29.589c-18.204 6.227-30.436 23.338-30.436 42.578v83.144h50v-83.144c0-19.24 12.232-36.351 30.436-42.578z" fill="#e2dee2"/><path d="m254.933 380.446 44.919-31.261v-90.601h-87.706v90.601z" fill="#d78878"/><path d="m242.146 341.457v-82.873h-30v90.601l42.787 31.262 15.365-10.693-21.911-16.009c-3.922-2.866-6.241-7.431-6.241-12.288z" fill="#ca6e59"/><path d="m255.999 318.123c-41.558 0-75.248-33.69-75.248-75.248v-92.878h150.496v92.878c0 41.558-33.69 75.248-75.248 75.248z" fill="#f1b0a2"/><path d="m210.751 242.875v-92.878h-30v92.878c0 41.558 33.69 75.248 75.248 75.248 5.136 0 10.153-.515 15-1.495-34.371-6.954-60.248-37.331-60.248-73.753z" fill="#eb9c8d"/><path d="m180.751 180.923h-14.019c-10.743 0-19.451 8.709-19.451 19.451v14.575c0 10.743 8.709 19.451 19.451 19.451h14.019z" fill="#d78878"/><path d="m331.247 180.923h14.019c10.743 0 19.451 8.709 19.451 19.451v14.575c0 10.743-8.709 19.451-19.451 19.451h-14.019z" fill="#d78878"/><path d="m349.186 69.625c0-17.155-13.907-31.062-31.062-31.062-6.169 0-11.917 1.798-16.75 4.899-4.811-20.61-23.3-35.962-45.375-35.962s-40.564 15.352-45.374 35.961c-4.833-3.101-10.582-4.899-16.75-4.899-17.155 0-31.062 13.907-31.062 31.062 0 12.465 7.343 23.216 17.939 28.162v72.21h150.496v-72.21c10.595-4.946 17.938-15.696 17.938-28.161z" fill="#f3f0f3"/><g><g fill="#e2dee2"><path d="m331.373 43.461c.571-.366 1.155-.714 1.75-1.043-.755-.417-1.53-.804-2.322-1.159.208.727.399 1.461.572 2.202z"/><path d="m192.812 69.625c0-11.715 6.486-21.915 16.062-27.206-4.447-2.457-9.56-3.856-15-3.856-17.155 0-31.062 13.907-31.062 31.062 0 12.465 7.343 23.216 17.939 28.162v72.21h30v-72.21c-10.596-4.947-17.939-15.697-17.939-28.162z"/><path d="m223.875 38.562c6.169 0 11.917 1.798 16.75 4.899 3.667-15.71 15.282-28.364 30.374-33.493-4.707-1.6-9.752-2.468-15-2.468-21.281 0-39.229 14.268-44.802 33.759 3.871-1.733 8.162-2.697 12.678-2.697z"/></g></g><g><circle cx="254.933" cy="426.84" r="7.484"/><circle cx="254.933" cy="457.903" r="7.484"/><g><path d="m393.085 373.37c-3.787-1.676-8.217.035-9.894 3.822-1.677 3.788.034 8.217 3.822 9.894 13.532 5.991 22.276 19.439 22.276 34.262v75.65h-191.725l-.034-81.562 83.485-57.922 55.737 19.061c3.819 1.226 6.994-.33 9.523-4.67 1.34-3.919-.75-8.183-4.67-9.523l-54.257-18.555v-36.11c19.118-15.169 31.4-38.597 31.4-64.839v-.977h6.517c14.861 0 26.951-12.09 26.951-26.952v-14.575c0-14.861-12.09-26.951-26.951-26.951h-6.517c-.005-23.737-.002-47.475-.002-71.212 11.034-7.007 17.938-19.323 17.938-32.586 0-25.537-26.723-44.642-50.82-36.57-8.3-19.841-27.692-33.055-49.865-33.055s-41.565 13.214-49.867 33.054c-24.172-8.096-50.82 11.037-50.82 36.57 0 13.264 6.905 25.579 17.938 32.586 0 23.737.003 47.475-.002 71.212h-6.517c-14.861 0-26.951 12.09-26.951 26.951v14.575c0 14.861 12.09 26.951 26.951 26.951h6.517v.978c0 26.242 12.282 49.67 31.4 64.839v36.11l-81.435 27.854c-21.237 7.258-35.505 27.218-35.505 49.667v83.15c0 4.142 3.358 7.5 7.5 7.5h47.42c4.142 0 7.5-3.358 7.5-7.5s-3.358-7.5-7.5-7.5h-39.92v-75.65c0-16.035 10.189-30.29 25.357-35.474l82.814-28.326 31.147 22.757-36.251 24.857c-2 1.393-3.198 3.669-3.214 6.106l.002 85.729h-27.255c-4.142 0-7.5 3.358-7.5 7.5s3.358 7.5 7.5 7.5h241.48c4.142 0 7.5-3.358 7.5-7.5v-83.15c.001-20.752-12.247-39.584-31.203-47.976zm-47.819-184.947c6.59 0 11.951 5.361 11.951 11.951v14.575c0 6.59-5.361 11.952-11.951 11.952h-6.517v-38.478zm-142.974-140.812s-.386 4.313-.386 6.482c0 4.142 3.358 7.5 7.5 7.5s7.5-3.358 7.5-7.5c0-20.588 18.354-39.093 39.093-39.093 20.864 0 39.093 18.4 39.093 39.093 0 4.142 3.358 7.5 7.5 7.5s7.5-3.358 7.5-7.5c0-2.17-.13-4.336-.386-6.482 13.924-5.322 31.979 6.624 31.979 22.014 0 17.789-20.049 29.261-35.341 20.413-3.583-2.073-8.172-.851-10.248 2.735-2.075 3.585-.851 8.173 2.735 10.248 8.037 4.409 16.342 5.996 24.916 4.762v21.359c-8.759-1.912-20.676-3.253-35.622-4.004-4.137-.209-7.659 2.978-7.867 7.114-.208 4.137 2.978 7.659 7.114 7.867 19.721.991 30.534 2.867 36.375 4.445v16.5c-22.923-3.789-45.779-5.683-68.456-5.683-22.568 0-44.962 1.878-67.041 5.631v-16.152c12.84-2.907 38.785-5.018 66.886-5.311 4.142-.043 7.465-3.436 7.421-7.578-.043-4.142-3.387-7.48-7.578-7.421-21.589.225-49.441 1.692-66.73 5.007v-21.773c8.574 1.234 16.879-.353 24.916-4.762 3.585-2.075 4.81-6.663 2.735-10.248s-6.663-4.81-10.248-2.735c-15.173 8.779-35.319-2.633-35.341-20.413-.026-21.878 26.188-26.165 31.981-22.015zm-35.56 179.289c-6.59 0-11.951-5.361-11.951-11.951v-14.575c0-6.59 5.361-11.951 11.951-11.951h6.517v38.477zm21.517 15.978v-66.642c44.197-7.818 89.718-7.806 135.5.039v66.603c0 37.352-30.393 67.74-67.75 67.74s-67.75-30.388-67.75-67.74zm31.4 102.5v-28.178c10.978 5.39 23.317 8.418 36.35 8.418s25.372-3.028 36.35-8.418v28.069l-37.302 25.972z"/><path d="m223.617 230.756c4.142 0 7.5-3.358 7.5-7.5v-9.844c0-4.142-3.358-7.5-7.5-7.5s-7.5 3.358-7.5 7.5v9.844c0 4.142 3.358 7.5 7.5 7.5z"/><path d="m288.234 230.756c4.142 0 7.5-3.358 7.5-7.5v-9.844c0-4.142-3.358-7.5-7.5-7.5s-7.5 3.358-7.5 7.5v9.844c0 4.142 3.358 7.5 7.5 7.5z"/><path d="m255.999 286.374c14.507 0 26.309-11.802 26.309-26.309 0-4.142-3.358-7.5-7.5-7.5s-7.5 3.358-7.5 7.5c0 6.235-5.073 11.309-11.309 11.309s-11.309-5.073-11.309-11.309c0-4.142-3.358-7.5-7.5-7.5s-7.5 3.358-7.5 7.5c0 14.507 11.802 26.309 26.309 26.309z"/></g></g></g></svg>