<svg id="Capa_1" enable-background="new 0 0 512 512" height="512" viewBox="0 0 512 512" width="512" xmlns="http://www.w3.org/2000/svg"><path d="m143.241 448.212v-89.238h-9.573c-16.238 0-29.449-13.211-29.449-29.45h-1v118.688z" fill="#ea9b58"/><path d="m123.52 448.212v-91.041c-11.253-4.144-19.301-14.973-19.301-27.647h-1v118.688z" fill="#c57a44"/><path d="m353.888 358.974h40.023v89.238h-40.023z" fill="#d88a55"/><path d="m353.888 358.974h20.302v89.238h-20.302z" fill="#c57a44"/><path d="m353.888 422.99h40.023v25.222h-40.023z" fill="#32569d"/><path d="m353.888 422.99h20.302v25.222h-20.302z" fill="#303a78"/><path d="m133.668 359.974h39.445c5.606 0 10.15 4.544 10.15 10.15v78.088h40.023v-78.088c0-5.606 4.544-10.15 10.15-10.15h190.347c5.606 0 10.15 4.544 10.15 10.15v78.088h40.023v-264.751c0-39.24-31.81-71.05-71.05-71.05h-153.649c-7.095 8.619-17.826 13.922-29.357 13.922-3.986 0-7.937-.628-11.741-1.866l-1.31-.426v51.999c0 14.488-4.046 28.675-11.699 41.026l-.232.374.119.423c.887 3.163 1.337 6.417 1.337 9.671v3.947c0 19.89-16.182 36.071-36.071 36.071h-57.084v61.972c-.001 16.817 13.632 30.45 30.449 30.45z" fill="#ea9b58"/><path d="m133.671 329.524v-61.972h-30.453v61.972c0 16.817 13.633 30.45 30.45 30.45h30.453c-16.817 0-30.45-13.633-30.45-30.45z" fill="#d88a55"/><path d="m96.117 89.374v-26.529c0-7.181-5.876-13.057-13.057-13.057h-1.39c-7.181 0-13.057 5.876-13.057 13.057v26.529z" fill="#edcab2"/><path d="m188.453 89.374v-26.529c0-7.181-5.876-13.057-13.057-13.057h-1.39c-7.181 0-13.057 5.876-13.057 13.057v26.529z" fill="#edcab2"/><path d="m246.871 88.374h-40.021v36.711c4.081 1.451 8.472 2.247 13.051 2.247 16.753 0 31.036-10.574 36.539-25.412 2.437-6.572-2.559-13.546-9.569-13.546z" fill="#f6a96c"/><path d="m50.216 88.374h-40.021c-7.011 0-12.007 6.974-9.569 13.547 5.503 14.838 19.786 25.412 36.539 25.412 4.579 0 8.97-.796 13.051-2.247z" fill="#f6a96c"/><path d="m20.928 101.921c-2.438-6.573 2.558-13.547 9.569-13.547h-20.302c-7.011 0-12.007 6.974-9.569 13.547 5.503 14.838 19.786 25.412 36.539 25.412 3.511 0 6.91-.472 10.146-1.343-12.2-3.286-22.034-12.343-26.383-24.069z" fill="#ea9b58"/><path d="m49.216 88.374v87.666c0 15.685 4.633 30.331 12.571 42.675 3.945-15.64 18.128-27.252 34.976-27.252h63.541c16.848 0 31.031 11.612 34.976 27.251 7.938-12.344 12.57-26.99 12.57-42.675v-87.665z" fill="#d88a55"/><path d="m81.912 194.675c-1.456-5.983-2.244-12.22-2.244-18.635v-87.666h-30.452v87.666c0 15.685 4.633 30.331 12.57 42.675 2.706-10.727 10.231-19.55 20.126-24.04z" fill="#c57a44"/><path d="m94.864 167.514c-4.143 0-7.5-3.358-7.5-7.5v-15.305c0-4.142 3.357-7.5 7.5-7.5s7.5 3.358 7.5 7.5v15.305c0 4.142-3.357 7.5-7.5 7.5z" fill="#303a78"/><path d="m162.2 167.514c-4.143 0-7.5-3.358-7.5-7.5v-15.305c0-4.142 3.357-7.5 7.5-7.5s7.5 3.358 7.5 7.5v15.305c0 4.142-3.357 7.5-7.5 7.5z" fill="#303a78"/><path d="m160.303 268.552h-63.541c-20.389 0-37.071-16.682-37.071-37.071v-3.947c0-20.389 16.682-37.071 37.071-37.071h63.541c20.389 0 37.071 16.682 37.071 37.071v3.947c0 20.389-16.682 37.071-37.071 37.071z" fill="#f5e2d4"/><path d="m82.023 230.921v-2.828c0-20.697 16.934-37.63 37.63-37.63h-22.332c-20.697 0-37.63 16.934-37.63 37.63v2.828c0 20.697 16.934 37.63 37.63 37.63h22.332c-20.696.001-37.63-16.933-37.63-37.63z" fill="#edcab2"/><path d="m262.466 448.212v-14.528c0-4.142-3.357-7.5-7.5-7.5s-7.5 3.358-7.5 7.5v14.528z" fill="#09a76d"/><path d="m311.186 448.212v-14.528c0-4.142-3.357-7.5-7.5-7.5s-7.5 3.358-7.5 7.5v14.528z" fill="#09a76d"/><path d="m64.54 448.212v-14.528c0-4.142-3.357-7.5-7.5-7.5s-7.5 3.358-7.5 7.5v14.528z" fill="#09a76d"/><g fill="#32569d"><path d="m108.232 233.36h-12.18c-4.143 0-7.5-3.358-7.5-7.5s3.357-7.5 7.5-7.5h12.18c4.143 0 7.5 3.358 7.5 7.5s-3.357 7.5-7.5 7.5z"/><path d="m161.013 233.36h-12.18c-4.143 0-7.5-3.358-7.5-7.5s3.357-7.5 7.5-7.5h12.18c4.143 0 7.5 3.358 7.5 7.5s-3.358 7.5-7.5 7.5z"/><path d="m103.218 422.99h40.023v25.222h-40.023z"/></g><path d="m103.218 422.99h20.302v25.222h-20.302z" fill="#303a78"/><path d="m433.933 422.99h40.023v25.222h-40.023z" fill="#32569d"/><path d="m433.933 422.99h20.302v25.222h-20.302z" fill="#303a78"/><path d="m183.264 422.99h40.023v25.222h-40.023z" fill="#32569d"/><path d="m183.264 422.99h20.302v25.222h-20.302z" fill="#303a78"/><path d="m504.5 447.212h-168.954v-13.528c0-4.142-3.357-7.5-7.5-7.5s-7.5 3.358-7.5 7.5v13.528h-33.72v-13.528c0-4.142-3.357-7.5-7.5-7.5s-7.5 3.358-7.5 7.5v13.528h-185.971v-13.528c0-4.142-3.357-7.5-7.5-7.5s-7.5 3.358-7.5 7.5v13.528h-31.35c-4.143 0-7.5 3.358-7.5 7.5s3.357 7.5 7.5 7.5h464.995c4.143 0 7.5-3.358 7.5-7.5s-3.357-7.5-7.5-7.5z" fill="#8bc727"/></svg>