<svg height="503.32203pt" viewBox="0 0 503.32203 503.32203" width="503.32203pt" xmlns="http://www.w3.org/2000/svg"><path d="m251.660156 0c-138.988281 0-251.660156 112.671875-251.660156 251.660156 0 138.988282 112.671875 251.660156 251.660156 251.660156 138.988282 0 251.660156-112.671874 251.660156-251.660156 0-138.988281-112.671874-251.660156-251.660156-251.660156zm0 468.609375c-84.722656.082031-161.722656-49.210937-197.121094-126.183594-35.398437-76.972656-22.703124-167.511719 32.5-231.78125l252.875 252.875 52.765626 52.761719c-39.175782 33.847656-89.246094 52.429688-141.019532 52.328125zm165.578125-76.886719-305.554687-305.550781c86.066406-72.933594 213.683594-67.671875 293.457031 12.097656 79.769531 79.769531 85.03125 207.386719 12.097656 293.453125zm0 0" fill="#c03a2b"/><path d="m295.050781 124.875c-1.261719 22.738281-20.648437 40.183594-43.390625 39.050781-22.742187 1.132813-42.128906-16.3125-43.390625-39.050781 0-15.679688 22.9375-70.488281 35.460938-99.242188 1.390625-3.132812 4.5-5.15625 7.929687-5.15625 3.433594 0 6.539063 2.023438 7.933594 5.15625 12.519531 28.753907 35.457031 83.5625 35.457031 99.242188zm0 0" fill="#b19046"/><path d="m277.695312 112.242188c0 18.960937-11.65625 34.328124-26.035156 34.328124s-26.03125-15.367187-26.03125-34.328124c0-13.78125 13.761719-61.972657 21.277344-87.242188 1.8125-6.074219 7.695312-6.074219 9.546875 0 7.480469 25.246094 21.242187 73.460938 21.242187 87.242188zm0 0" fill="#e4c05c"/><path d="m251.660156 477.289062c-4.792968 0-8.675781-3.886718-8.675781-8.679687v-8l-23.007813-59.234375c-1.253906-2.917969-.816406-6.285156 1.140626-8.785156 1.960937-2.496094 5.125-3.726563 8.257812-3.207032 3.128906.523438 5.726562 2.710938 6.769531 5.707032l23.605469 60.746094c.390625 1 .589844 2.066406.589844 3.140624v9.632813c0 2.300781-.914063 4.507813-2.542969 6.136719s-3.835937 2.542968-6.136719 2.542968zm0 0" fill="#59474e"/><path d="m251.660156 477.289062c-4.792968 0-8.675781-3.886718-8.675781-8.679687v-9.632813c-.003906-1.039062.183594-2.070312.546875-3.042968l22.742188-60.746094c1.039062-2.972656 3.601562-5.144531 6.699218-5.6875s6.246094.632812 8.230469 3.074219c1.984375 2.441406 2.488281 5.765625 1.324219 8.6875l-22.1875 59.285156v8.0625c0 4.792969-3.886719 8.679687-8.679688 8.679687zm0 0" fill="#59474e"/><path d="m329.070312 191.957031c-5.472656 8.902344-12.78125 16.535157-21.4375 22.390625l-25.597656 13.535156c-.3125.160157-.628906.304688-.957031.433594-9.597656 4.019532-20.683594.261719-25.859375-8.765625-1.078125-1.785156-1.8125-3.757812-2.167969-5.8125-4.3125-19.414062-1.636719-39.722656 7.546875-57.363281 13.539063-22.820312 41.136719-34.535156 57.449219-39.65625 4.21875-1.359375 8.503906-2.492188 12.84375-3.382812 0 0 18.136719 44.949218-1.820313 78.621093zm0 0" fill="#f29c1f"/><path d="m312.144531 181.804688c-5.5 8.90625-12.835937 16.539062-21.519531 22.386718l-25.511719 13.539063c-.304687.152343-.625.269531-.957031.347656-2.839844 1.117187-5.886719 1.621094-8.9375 1.472656-1.078125-1.785156-1.8125-3.757812-2.167969-5.8125-4.3125-19.414062-1.636719-39.722656 7.546875-57.363281 13.539063-22.820312 41.136719-34.535156 57.449219-39.65625 3.820313 15.878906 7.203125 42.957031-5.902344 65.085938zm0 0" fill="#f0c419"/><path d="m329.070312 282.242188c-5.472656 8.902343-12.78125 16.535156-21.4375 22.390624l-25.597656 13.535157c-.3125.160156-.628906.308593-.957031.433593-9.597656 4.019532-20.683594.261719-25.859375-8.761718-1.078125-1.789063-1.8125-3.761719-2.167969-5.816406-4.3125-19.414063-1.636719-39.722657 7.546875-57.359376 13.539063-22.824218 41.136719-34.539062 57.449219-39.660156 4.21875-1.359375 8.503906-2.488281 12.84375-3.382812 0 0 18.136719 44.949218-1.820313 78.621094zm0 0" fill="#e57e25"/><path d="m312.144531 272.089844c-5.5 8.90625-12.835937 16.539062-21.519531 22.386718l-25.511719 13.503907c-.304687.152343-.625.269531-.957031.347656-2.839844 1.121094-5.886719 1.621094-8.9375 1.476563-1.078125-1.789063-1.8125-3.757813-2.167969-5.816407-4.3125-19.414062-1.636719-39.722656 7.546875-57.359375 13.539063-22.824218 41.136719-34.539062 57.449219-39.660156 3.820313 15.917969 7.203125 42.992188-5.902344 65.121094zm0 0" fill="#f29c1f"/><path d="m329.070312 372.71875c-5.472656 8.902344-12.78125 16.535156-21.4375 22.390625l-25.597656 13.535156c-.3125.160157-.628906.308594-.957031.433594-9.597656 4.019531-20.683594.261719-25.859375-8.761719-1.078125-1.789062-1.8125-3.761718-2.167969-5.816406-4.3125-19.414062-1.636719-39.722656 7.546875-57.359375 13.539063-22.824219 41.136719-34.539063 57.449219-39.660156 4.21875-1.359375 8.503906-2.488281 12.84375-3.382813 0 0 18.136719 44.949219-1.820313 78.621094zm0 0" fill="#f29c1f"/><path d="m312.144531 362.566406c-5.5 8.90625-12.835937 16.539063-21.519531 22.386719l-25.511719 13.539063c-.304687.152343-.625.269531-.957031.347656-2.839844 1.121094-5.886719 1.621094-8.9375 1.476562-1.078125-1.789062-1.8125-3.761718-2.167969-5.816406-4.3125-19.414062-1.636719-39.722656 7.546875-57.359375 13.539063-22.824219 41.136719-34.539063 57.449219-39.660156 3.820313 15.882812 7.203125 42.957031-5.902344 65.085937zm0 0" fill="#f0c419"/><path d="m174.253906 191.957031c5.46875 8.902344 12.777344 16.535157 21.433594 22.390625l25.601562 13.535156c.308594.160157.628907.304688.953126.433594 9.597656 4.019532 20.683593.261719 25.859374-8.765625 1.078126-1.785156 1.816407-3.757812 2.171876-5.8125 4.308593-19.414062 1.636718-39.722656-7.550782-57.363281-13.539062-22.820312-41.132812-34.535156-57.449218-39.65625-4.214844-1.359375-8.503907-2.492188-12.84375-3.382812 0 0-18.136719 44.949218 1.824218 78.621093zm0 0" fill="#e57e25"/><path d="m191.175781 181.804688c5.5 8.90625 12.835938 16.539062 21.519531 22.386718l25.515626 13.539063c.300781.152343.621093.269531.953124.347656 2.84375 1.117187 5.886719 1.621094 8.9375 1.472656 1.078126-1.785156 1.816407-3.757812 2.171876-5.8125 4.308593-19.414062 1.636718-39.722656-7.550782-57.363281-13.539062-22.820312-41.132812-34.535156-57.449218-39.65625-3.816407 15.878906-7.203126 42.957031 5.902343 65.085938zm0 0" fill="#f29c1f"/><path d="m174.253906 282.242188c5.46875 8.902343 12.777344 16.535156 21.433594 22.390624l25.601562 13.535157c.308594.160156.628907.308593.953126.433593 9.597656 4.019532 20.683593.261719 25.859374-8.761718 1.078126-1.789063 1.816407-3.761719 2.171876-5.816406 4.308593-19.414063 1.636718-39.722657-7.550782-57.359376-13.539062-22.824218-41.132812-34.539062-57.449218-39.660156-4.214844-1.359375-8.503907-2.488281-12.84375-3.382812 0 0-18.136719 44.949218 1.824218 78.621094zm0 0" fill="#f29c1f"/><path d="m191.175781 272.089844c5.5 8.90625 12.835938 16.539062 21.519531 22.386718l25.515626 13.539063c.300781.152344.621093.269531.953124.347656 2.84375 1.121094 5.886719 1.621094 8.9375 1.476563 1.078126-1.789063 1.816407-3.761719 2.171876-5.816406 4.308593-19.414063 1.636718-39.722657-7.550782-57.359376-13.539062-22.824218-41.132812-34.539062-57.449218-39.660156-3.816407 15.882813-7.203126 42.957032 5.902343 65.085938zm0 0" fill="#f0c419"/><path d="m174.253906 372.71875c5.46875 8.902344 12.777344 16.535156 21.433594 22.390625l25.601562 13.535156c.308594.160157.628907.308594.953126.433594 9.597656 4.019531 20.683593.261719 25.859374-8.761719 1.078126-1.789062 1.816407-3.761718 2.171876-5.816406 4.308593-19.414062 1.636718-39.722656-7.550782-57.359375-13.539062-22.824219-41.132812-34.539063-57.449218-39.660156-4.214844-1.359375-8.503907-2.488281-12.84375-3.382813 0 0-18.136719 44.949219 1.824218 78.621094zm0 0" fill="#e57e25"/><path d="m191.175781 362.566406c5.5 8.90625 12.835938 16.539063 21.519531 22.386719l25.515626 13.539063c.300781.152343.621093.269531.953124.347656 2.84375 1.121094 5.886719 1.621094 8.9375 1.476562 1.078126-1.789062 1.816407-3.761718 2.171876-5.816406 4.308593-19.414062 1.636718-39.722656-7.550782-57.359375-13.539062-22.824219-41.132812-34.539063-57.449218-39.660156-3.816407 15.882812-7.203126 42.957031 5.902343 65.085937zm0 0" fill="#f29c1f"/></svg>