<?xml version="1.0" encoding="iso-8859-1"?>
<!-- Generator: Adobe Illustrator 19.0.0, SVG Export Plug-In . SVG Version: 6.00 Build 0)  -->
<svg version="1.1" id="Capa_1" xmlns="http://www.w3.org/2000/svg" xmlns:xlink="http://www.w3.org/1999/xlink" x="0px" y="0px"
	 viewBox="0 0 512 512" style="enable-background:new 0 0 512 512;" xml:space="preserve">
<path style="fill:#F4B74A;" d="M61.454,62.397C116.744,7.117,198.477-5.591,265.928,24.29c15.886,7.031,30.965,16.422,44.729,28.177
	c3.687,3.14,7.262,6.456,10.745,9.93c71.777,71.786,71.777,188.163,0,259.949c-71.786,71.777-188.163,71.777-259.949,0
	c-3.482-3.482-6.79-7.058-9.93-10.745c-11.755-13.755-21.147-28.844-28.177-44.729C-6.534,199.43,6.174,117.686,61.454,62.397z"/>
<path style="fill:#F9C662;" d="M23.347,266.872L265.928,24.29c15.886,7.031,30.965,16.422,44.729,28.177L51.524,311.601
	C39.77,297.847,30.377,282.757,23.347,266.872z"/>
<path style="fill:#FFD488;" d="M43.67,192.372c0-81.605,66.155-147.759,147.759-147.759c46.063,0,87.199,21.073,114.302,54.113
	c20.915,25.491,33.457,58.105,33.457,93.646c0,81.605-66.155,147.759-147.759,147.759c-35.55,0-68.164-12.56-93.655-33.476
	C64.743,279.562,43.67,238.426,43.67,192.372z"/>
<path style="fill:#F9C662;" d="M97.773,306.655L305.713,98.716l0.018,0.009c6.104,7.438,11.495,15.487,16.062,24.036
	c5.205,9.717,9.346,20.072,12.283,30.938c3.335,12.328,5.113,25.297,5.113,38.672c0,81.605-66.155,147.759-147.759,147.759
	c-13.385,0-26.352-1.779-38.672-5.113c-10.866-2.936-21.221-7.086-30.938-12.292C113.27,318.16,105.221,312.759,97.773,306.655z"/>
<path style="fill:#FFD488;" d="M121.82,322.726l199.973-199.964c5.205,9.717,9.346,20.072,12.283,30.938L152.757,335.018
	C141.892,332.081,131.536,327.931,121.82,322.726z"/>
<polygon style="fill:#E05F5F;" points="504.381,389.098 382.306,503.437 260.231,389.098 315.882,389.098 315.882,8.563 
	448.729,8.563 448.729,389.098 "/>
<path d="M191.428,368.563c-97.152,0-176.191-79.039-176.191-176.191S94.277,16.182,191.428,16.182
	c35.308,0,69.37,10.403,98.505,30.087c3.487,2.356,8.222,1.438,10.578-2.048c2.355-3.487,1.438-8.223-2.049-10.579
	C266.801,12.25,229.789,0.944,191.428,0.944C85.875,0.944,0,86.818,0,192.372s85.875,191.428,191.428,191.428
	c4.208,0,7.619-3.411,7.619-7.619C199.047,371.974,195.637,368.563,191.428,368.563z"/>
<path d="M300.212,340.745c-2.35-3.493-7.084-4.419-10.574-2.069c-19.395,13.045-40.814,21.962-63.665,26.503
	c-4.127,0.82-6.808,4.83-5.987,8.958c0.72,3.626,3.903,6.136,7.465,6.136c0.492,0,0.991-0.048,1.493-0.148
	c24.841-4.936,48.122-14.627,69.199-28.805C301.634,348.972,302.56,344.237,300.212,340.745z"/>
<path d="M299.671,91.516c2.928-3.022,2.852-7.845-0.171-10.773c-29.43-28.511-68.21-44.019-109.24-43.739
	c-41.058,0.306-79.663,16.465-108.703,45.499C52.211,111.848,36.05,150.867,36.05,192.371s16.161,80.523,45.507,109.868
	c29.039,29.039,67.644,45.201,108.703,45.507c0.398,0.003,0.791,0.004,1.19,0.004c40.572,0,78.906-15.511,108.052-43.751
	c3.022-2.928,3.098-7.751,0.171-10.773c-2.929-3.021-7.752-3.1-10.773-0.17c-26.286,25.469-60.855,39.456-97.451,39.456
	c-0.357,0-0.716-0.001-1.073-0.004c-37.032-0.276-71.851-14.853-98.043-41.045c-26.468-26.468-41.044-61.66-41.044-99.093
	c0-37.434,14.577-72.626,41.044-99.093c26.192-26.187,61.01-40.761,98.043-41.037c37.029-0.26,71.983,13.733,98.524,39.446
	C291.922,94.615,296.745,94.538,299.671,91.516z"/>
<path d="M226.728,156.608c0,4.208,3.411,7.619,7.619,7.619c4.208,0,7.619-3.411,7.619-7.619c0-21.699-18.654-39.726-42.918-42.89
	v-7.18c0-4.208-3.411-7.619-7.619-7.619s-7.619,3.411-7.619,7.619v7.18c-24.264,3.163-42.918,21.191-42.918,42.89
	s18.654,39.727,42.918,42.891v56.117c-15.812-2.785-27.68-14.044-27.68-27.478c0-4.208-3.411-7.619-7.619-7.619
	c-4.208,0-7.619,3.411-7.619,7.619c0,21.699,18.654,39.726,42.918,42.89v7.18c0,4.208,3.411,7.619,7.619,7.619
	s7.619-3.411,7.619-7.619v-7.18c24.264-3.163,42.918-21.191,42.918-42.89s-18.654-39.726-42.918-42.89v-56.117
	C214.86,131.915,226.728,143.174,226.728,156.608z M156.13,156.608c0-13.434,11.867-24.692,27.68-27.478v54.956
	C167.998,181.3,156.13,170.041,156.13,156.608z M226.728,228.136c0,13.434-11.867,24.692-27.68,27.478v-54.956
	C214.86,203.445,226.728,214.703,226.728,228.136z"/>
<path d="M511.466,386.299c-1.149-2.908-3.958-4.819-7.086-4.819h-48.033V260.395c0-4.208-3.41-7.619-7.619-7.619
	s-7.619,3.411-7.619,7.619v128.703c0,4.208,3.41,7.619,7.619,7.619h36.373l-102.795,96.281L279.51,396.717h36.373
	c4.209,0,7.619-3.411,7.619-7.619V16.182H441.11v213.736c0,4.208,3.41,7.619,7.619,7.619s7.619-3.411,7.619-7.619V8.563
	c0-4.208-3.41-7.619-7.619-7.619H315.882c-4.209,0-7.619,3.411-7.619,7.619v372.917h-48.033c-3.127,0-5.937,1.911-7.086,4.819
	c-1.149,2.908-0.404,6.223,1.877,8.361l122.076,114.339c1.465,1.372,3.336,2.058,5.208,2.058c1.872,0,3.743-0.686,5.208-2.058
	l122.075-114.34C511.872,392.522,512.616,389.206,511.466,386.299z"/>
<g>
</g>
<g>
</g>
<g>
</g>
<g>
</g>
<g>
</g>
<g>
</g>
<g>
</g>
<g>
</g>
<g>
</g>
<g>
</g>
<g>
</g>
<g>
</g>
<g>
</g>
<g>
</g>
<g>
</g>
</svg>
