<?xml version="1.0" encoding="iso-8859-1"?>
<!-- Generator: Adobe Illustrator 16.0.0, SVG Export Plug-In . SVG Version: 6.00 Build 0)  -->
<!DOCTYPE svg PUBLIC "-//W3C//DTD SVG 1.1//EN" "http://www.w3.org/Graphics/SVG/1.1/DTD/svg11.dtd">
<svg version="1.1" id="Capa_1" xmlns="http://www.w3.org/2000/svg" xmlns:xlink="http://www.w3.org/1999/xlink" x="0px" y="0px"
	 width="475px" height="475px" viewBox="0 0 475 475" style="enable-background:new 0 0 475 475;" xml:space="preserve">
<g>
	<g id="Layer_2">
		<g>
			<path d="M191.195,251.335c11.414,0,20.693-9.264,20.693-20.708c0-11.429-9.279-20.707-20.693-20.707
				c-11.442,0-20.722,9.277-20.722,20.707C170.474,242.042,179.753,251.335,191.195,251.335z M195.441,222.568
				c5.864,0,10.596,4.761,10.596,10.611c0,5.879-4.731,10.639-10.596,10.639c-5.865,0-10.613-4.76-10.613-10.639
				C184.828,227.329,189.577,222.568,195.441,222.568z"/>
			<path d="M171.883,357.256l-0.008-0.007c0,0-0.045,0-0.111,0.001c-0.005,0-0.009,0-0.014,0c-0.007,0-0.014,0.001-0.021,0.001
				c-1.604,0.019-16.799,0.181-20.827,0.181c-29.928,0-70.009,27.255-70.009,61.991c0,34.735,0,55.577,0,55.577h124.346
				c-12.063-29.27-22.813-101.287-23.95-109.057C180.844,361.113,176.815,357.324,171.883,357.256z"/>
			<path d="M411.266,139.701c-4.668-9.722-16.272-13.863-26.039-9.284c-0.481,0.219-10.5,4.627-30.83,9.329v-92.72
				C354.396,21.164,333.234,0,307.371,0H237.5h-69.871c-25.863,0-47.025,21.164-47.025,47.026v92.72
				c-20.33-4.702-30.349-9.11-30.831-9.329c-9.766-4.579-21.371-0.438-26.039,9.284c-4.668,9.764-0.534,21.461,9.231,26.129
				c0.723,0.342,7.109,3.318,19.656,7.091c-12.949,8.692-20.595,25.191-20.595,45.841c0,14.286,3.385,25.808,10.06,34.249
				c6.717,8.494,16.431,13.304,28.228,14.021c12.02,21.2,29.643,40.469,50.134,54.712c24.077,16.736,50.685,25.71,77.052,26.045
				c26.367-0.335,52.976-9.309,77.052-26.045c20.491-14.243,38.114-33.512,50.134-54.712c11.797-0.716,21.511-5.527,28.229-14.021
				c6.675-8.439,10.06-19.963,10.06-34.249c0-20.65-7.646-37.149-20.595-45.841c12.547-3.773,18.934-6.749,19.656-7.091
				C411.8,161.163,415.934,149.465,411.266,139.701z M383.734,218.763c0,19.325-7.462,29.124-22.179,29.124
				c-0.345,0-0.852-0.039-1.389-0.082l-6.812-0.52l-2.923,5.667c-18.592,36.067-61.746,74.851-112.934,75.612
				c-51.188-0.762-94.342-39.545-112.934-75.612l-2.922-5.667l-6.812,0.52c-0.537,0.041-1.044,0.082-1.389,0.082
				c-14.716,0-22.178-9.799-22.178-29.124c0-6.366,1.245-27.066,16.83-32.187c0.97,6.667,4.739,28.068,13.304,29.42
				c8.769,1.385,2.911-21.928,8.385-34.321c26.157,4.771,61.763,8.771,107.715,8.809c45.953-0.039,81.559-4.039,107.715-8.809
				c5.474,12.394-0.384,35.706,8.385,34.321c8.564-1.352,12.333-22.752,13.305-29.42
				C382.489,191.696,383.734,212.396,383.734,218.763z"/>
			<path d="M283.806,209.921c-11.414,0-20.693,9.277-20.693,20.707c0,11.443,9.279,20.708,20.693,20.708
				c11.441,0,20.722-9.293,20.722-20.708C304.526,219.198,295.247,209.921,283.806,209.921z M279.56,243.82
				c-5.864,0-10.597-4.762-10.597-10.64c0-5.851,4.731-10.611,10.597-10.611c5.864,0,10.612,4.761,10.612,10.611
				C290.172,239.059,285.423,243.82,279.56,243.82z"/>
			<path d="M237.524,388.426c-0.008,0-0.016,0.001-0.024,0.001s-0.016-0.001-0.024-0.001c-6.05,0-10.955,4.906-10.955,10.955
				c0,6.052,4.905,10.958,10.955,10.958c0.008,0,0.016-0.001,0.024-0.001s0.016,0.001,0.024,0.001
				c6.05,0,10.956-4.905,10.956-10.958C248.479,393.332,243.574,388.426,237.524,388.426z"/>
			<path d="M237.524,429.041c-0.008,0-0.016,0.001-0.024,0.001s-0.016-0.001-0.024-0.001c-6.05,0-10.955,4.905-10.955,10.958
				c0,6.049,4.905,10.954,10.955,10.954c0.008,0,0.016-0.001,0.024-0.001s0.016,0.001,0.024,0.001
				c6.05,0,10.956-4.904,10.956-10.954C248.479,433.946,243.574,429.041,237.524,429.041z"/>
			<path d="M295.395,278.312c-1.459,0-2.781,0.58-3.758,1.515c-1.436,1.155-2.766,2.588-4.303,1.886
				c-11.131-6.764-21.108-28.878-49.417-28.878c-0.087,0-0.237,0-0.417,0s-0.33,0-0.417,0c-28.307,0-38.286,22.114-49.417,28.878
				c-1.537,0.702-2.867-0.73-4.303-1.886c-0.977-0.937-2.299-1.515-3.758-1.515c-3.002,0-5.436,2.435-5.436,5.437
				c0,0.222,0.018,0.44,0.043,0.655c0.195,5.416,12.866,11.1,22.524,8.619c0.806-0.203,22.292-2.918,40.763-21.012
				c18.473,18.094,39.958,20.811,40.764,21.012c9.657,2.48,22.328-3.203,22.523-8.619c0.026-0.215,0.043-0.434,0.043-0.655
				C300.831,280.747,298.396,278.312,295.395,278.312z"/>
			<path d="M324.099,357.432c-4.027,0-19.224-0.164-20.826-0.181c-0.008,0-0.015-0.001-0.021-0.001c-0.005,0-0.009,0-0.014,0
				c-0.065,0-0.111-0.001-0.111-0.001l-0.008,0.007c-4.933,0.068-8.96,3.855-9.405,8.688c-1.137,7.77-11.887,79.787-23.949,109.057
				h124.346c0,0,0-20.842,0-55.577C394.107,384.687,354.026,357.432,324.099,357.432z"/>
		</g>
	</g>
</g>
<g>
</g>
<g>
</g>
<g>
</g>
<g>
</g>
<g>
</g>
<g>
</g>
<g>
</g>
<g>
</g>
<g>
</g>
<g>
</g>
<g>
</g>
<g>
</g>
<g>
</g>
<g>
</g>
<g>
</g>
</svg>
