<svg id="Layer_1" height="512" viewBox="0 0 512 512" width="512" xmlns="http://www.w3.org/2000/svg"><g><g><path d="m272 480h-32c-123.712 0-224-100.288-224-224 0-123.712 100.288-224 224-224h32c123.712 0 224 100.288 224 224 0 123.712-100.288 224-224 224z" fill="#e1322d"/></g><g><circle cx="240" cy="256" fill="#f04b37" r="224"/></g><g><circle cx="240" cy="256" fill="#e1322d" r="176"/></g><g><g><path d="m144 80c-8.837 0-16 7.163-16 16v32h32v-32c0-8.837-7.163-16-16-16z" fill="#f0915a"/></g><g><path d="m336 80c-8.837 0-16 7.163-16 16v32h32v-32c0-8.837-7.163-16-16-16z" fill="#f0915a"/></g><g><path d="m112 160v144c0 17.673 14.327 32 32 32 17.673 0 32 14.327 32 32v58.667c0 13.255 10.745 24 24 24h80c13.255 0 24-10.745 24-24v-58.667c0-17.673 14.327-32 32-32 17.673 0 32-14.327 32-32v-144c0-26.51-21.49-48-48-48h-160c-26.51 0-48 21.49-48 48z" fill="#463c4b"/></g><g><path d="m112 160v24c0 13.255 10.745 24 24 24h32c17.673 0 32 14.327 32 32v144h80v-144c0-17.673 14.327-32 32-32h32c13.255 0 24-10.745 24-24v-24c0-26.51-21.49-48-48-48h-160c-26.51 0-48 21.49-48 48z" fill="#d7e6f0"/></g><g><circle cx="168" cy="240" fill="#32283c" r="16"/></g><g><circle cx="312" cy="240" fill="#32283c" r="16"/></g><g><path d="m72 224h-24c-8.837 0-16-7.163-16-16v-8c0-22.091 17.909-40 40-40h40v24c0 22.091-17.909 40-40 40z" fill="#463c4b"/></g><g><path d="m408 224h24c8.837 0 16-7.163 16-16v-8c0-22.091-17.909-40-40-40h-40v24c0 22.091 17.909 40 40 40z" fill="#463c4b"/></g><g><path d="m280 384h-80c-13.255 0-24 10.745-24 24v18.667c0 13.255 10.745 24 24 24h80c13.255 0 24-10.745 24-24v-18.667c0-13.255-10.745-24-24-24z" fill="#f5826e"/></g><g><path d="m212 416c-6.627 0-12 5.373-12 12v22.667h24v-22.667c0-6.627-5.373-12-12-12z" fill="#f0505a"/></g><g><path d="m268 416c-6.627 0-12 5.373-12 12v22.667h24v-22.667c0-6.627-5.373-12-12-12z" fill="#f0505a"/></g></g><g><path d="m227.998 244.002 140.002-140.002 24 24-140.002 140.002-139.998 139.998-24-24z" fill="#f04b37"/></g></g></svg>