<svg id="Layer_1" data-name="Layer 1" xmlns="http://www.w3.org/2000/svg" viewBox="0 0 96.16 122.88"><defs><style>.cls-1{fill:#212121;}.cls-1,.cls-2,.cls-3,.cls-4{fill-rule:evenodd;}.cls-2{fill:#fff;}.cls-4{fill:#ff9f34;}</style></defs><title>takeaway-fast-food</title><path class="cls-1" d="M71.28.23a3.63,3.63,0,0,1,.86-.08c3.92.05,7.92,2,9,6.05,0,.14.06.27.08.4,1.05,5.09,2.73,10.93,4.54,17.21,2.84,9.82,6,20.7,7.74,32.78C95.41,69.7,96.7,80,95.94,92.93a77.24,77.24,0,0,1-2.29,14.63,30.59,30.59,0,0,0-.58,3.37c-.78,5.75-1.58,11.74-8.62,11.94h-.13l-70.88,0-.41,0a11.37,11.37,0,0,1-5.26-1.1A7.36,7.36,0,0,1,4,116.3l0-.11C1.85,105.23.83,98.87.42,92.47-.4,79.65-.06,74.62,1.81,61.84c2.06-14.15,5.65-27.6,9-40.3,1.5-5.63,3-11.12,4.13-16a4.28,4.28,0,0,1,.29-.83A7.69,7.69,0,0,1,22.56,0a4.57,4.57,0,0,1,.82.09l6.2,1a4,4,0,0,1,1.09.34,2.16,2.16,0,0,1,1.13,0c3.38.74,5,3.51,5.64,9.59.46,4.69.35,11.76.06,22.08l21.88.14a152.16,152.16,0,0,1-.83-18.63C59.09,3.11,62.77,1.76,71.28.23Z"/><path class="cls-2" d="M30.7,19.45c-.68,4.29-1.31,8.92-1.9,13.6l4.06,0c.29-10.15.39-17.09,0-21.6-.09-.89-.2-1.64-.31-2.3q-1,5.12-1.8,10.28ZM67.56,5.32l4.5-.81c1.63,0,4.28.64,4.86,2.8,2.79,13.8,9.42,30.43,12.26,49.9C91,69.57,92.59,81.06,91.7,93a75.9,75.9,0,0,1-2.28,13.5c-1.13,4.47-.58,11.9-5.09,12l-70.89,0c-3.26-.06-4.62-.48-5.21-3.14C4,93.43,2.89,84.6,6.11,62.47c2.94-20.1,9-38.85,13.09-55.93a3.4,3.4,0,0,1,3.29-2.19l6.34,1.08c-1.82,8.43-3.22,18-4.41,27.38-.09,2.84.89,4.65,3.77,4.6l39.55.24c2.94-.37,4-2.14,3.51-5.13-.79-10.6-1.92-20.37-3.69-27.2ZM64,33.26l3,0h0a2.1,2.1,0,0,1,0-.43h0c-.39-5.38-.86-10.41-1.43-14.77-.45-3.4-1-6.54-1.56-9.3a28.75,28.75,0,0,0-.75,6.05A150.76,150.76,0,0,0,64,33.26Z"/><path class="cls-3" d="M66.39,33.1c0,.11-.07.17,0,.06s0,0,0-.06Z"/><path class="cls-1" d="M71.94,78.93a.72.72,0,0,1,.11.37c0,.09,0,.18,0,.27a2.62,2.62,0,0,1,0,.27.73.73,0,0,1-.11.38c-.37,1.61-1.85,3.73-6.4,3.73H30.23c-4.56,0-6-2.11-6.41-3.73a.72.72,0,0,1-.1-.38,2.62,2.62,0,0,1,0-.27,2.44,2.44,0,0,1,0-.27.71.71,0,0,1,.1-.37c.37-1.62,1.86-3.73,6.41-3.73H48.51l6.74,7,6.7-7h3.59c4.55,0,6,2.11,6.4,3.73Z"/><path class="cls-4" d="M68.29,71.85H28a4.67,4.67,0,0,1-4.66-4.66h0c0-6.63,13.21-13.2,24.31-13.32,21.83-.21,31.63,18,20.64,18Z"/><path class="cls-1" d="M25.35,87.54q22.55,0,45.07,0a1.63,1.63,0,0,1,1.63,1.63c0,2.43-1,7.18-6.51,7.18H30.23c-5.5,0-6.52-4.75-6.52-7.18a1.64,1.64,0,0,1,1.64-1.63Z"/><path class="cls-2" d="M37.16,59.53a2.51,2.51,0,1,1-2.5,2.5,2.51,2.51,0,0,1,2.5-2.5ZM48,57.14a2.51,2.51,0,1,1-2.51,2.51A2.51,2.51,0,0,1,48,57.14Zm11,2.21a2.51,2.51,0,1,1-2.51,2.51A2.5,2.5,0,0,1,59,59.35Z"/></svg>